<svg width="48" height="18" viewBox="0 0 48 18" fill="none" xmlns="http://www.w3.org/2000/svg">
<g clip-path="url(#clip0_8_204)">
<path d="M24.7815 5.96195L27.0651 5.8129C27.1172 6.18991 27.2127 6.47048 27.369 6.67213C27.6208 6.98777 27.9682 7.14559 28.4284 7.14559C28.767 7.14559 29.0362 7.06668 29.2185 6.90009C29.3922 6.76858 29.4964 6.55816 29.4964 6.33896C29.4964 6.12854 29.4009 5.92688 29.2359 5.79537C29.0622 5.63755 28.6541 5.47973 28.0116 5.33945C26.9609 5.10272 26.2055 4.78709 25.7627 4.38378C25.3198 4.00677 25.068 3.4544 25.0854 2.86697C25.0854 2.46366 25.2069 2.06035 25.4327 1.72718C25.6932 1.35017 26.0492 1.05207 26.4747 0.885481C26.9349 0.683825 27.5774 0.578613 28.385 0.578613C29.3748 0.578613 30.1302 0.762734 30.6512 1.13974C31.1722 1.50798 31.4848 2.10419 31.5803 2.91958L29.3227 3.05109C29.2619 2.70039 29.1404 2.44612 28.9407 2.27954C28.741 2.11295 28.4805 2.03404 28.1418 2.03404C27.864 2.03404 27.6556 2.09542 27.5166 2.2094C27.3864 2.31461 27.2996 2.47243 27.3083 2.64778C27.3083 2.7793 27.3777 2.90204 27.4819 2.98095C27.5948 3.08616 27.864 3.18261 28.2894 3.27028C29.3401 3.49824 30.0868 3.7262 30.547 3.96293C31.0072 4.19966 31.3372 4.48899 31.5369 4.83093C31.7453 5.18163 31.8495 5.58495 31.8408 5.99703C31.8408 6.48801 31.7019 6.979 31.424 7.39108C31.1375 7.8207 30.7381 8.15387 30.2692 8.35553C29.7742 8.57472 29.1491 8.6887 28.4023 8.6887C27.0825 8.6887 26.1708 8.43443 25.6585 7.91714C25.1462 7.39985 24.8423 6.75104 24.7815 5.96195ZM0.547033 8.55718V0.718896H4.54993C5.28799 0.718896 5.86107 0.780269 6.25181 0.911784C6.63386 1.03453 6.9725 1.28879 7.19826 1.63073C7.45007 2.00774 7.57164 2.44612 7.56295 2.90204C7.589 3.6736 7.19826 4.41008 6.52967 4.79586C6.26918 4.94491 5.98263 5.05012 5.68741 5.10272C5.90449 5.1641 6.12156 5.26931 6.31259 5.39206C6.4602 5.5148 6.58177 5.65509 6.69465 5.80414C6.82489 5.95319 6.93777 6.11977 7.03329 6.29513L8.19682 8.56595H5.47033L4.18524 6.15484C4.02026 5.84797 3.88133 5.64632 3.75109 5.54987C3.57742 5.42713 3.36903 5.36575 3.16064 5.36575H2.95224V8.54841H0.547033V8.55718ZM2.95224 3.89279H3.96816C4.18524 3.87525 4.39363 3.84018 4.60203 3.78758C4.75832 3.76127 4.89725 3.6736 4.99276 3.54208C5.22721 3.22645 5.19247 2.7793 4.90593 2.5075C4.74964 2.37598 4.44573 2.30584 4.01158 2.30584H2.95224V3.89279ZM0 15.2732L2.28365 15.1242C2.33575 15.5012 2.43126 15.7817 2.58755 15.9834C2.83068 16.299 3.18669 16.4656 3.64689 16.4656C3.98553 16.4656 4.2547 16.3867 4.43705 16.2201C4.61071 16.0798 4.71491 15.8782 4.71491 15.659C4.71491 15.4486 4.61939 15.2469 4.45441 15.1154C4.28075 14.9576 3.87265 14.7998 3.22142 14.6595C2.17077 14.4227 1.41534 14.1071 0.972504 13.7038C0.529667 13.3268 0.277858 12.7744 0.295224 12.187C0.295224 11.7837 0.416787 11.3804 0.642547 11.0472C0.903039 10.6702 1.25904 10.3721 1.68452 10.2055C2.14472 10.0038 2.78727 9.89863 3.59479 9.89863C4.58466 9.89863 5.34009 10.0828 5.86107 10.4598C6.38206 10.8368 6.68596 11.4242 6.78148 12.2396L4.52388 12.3711C4.4631 12.0204 4.34153 11.7661 4.14182 11.5996C3.9508 11.433 3.68162 11.3541 3.34298 11.3628C3.06512 11.3628 2.85673 11.4242 2.7178 11.547C2.57887 11.6522 2.50072 11.81 2.50941 11.9853C2.50941 12.1168 2.57887 12.2396 2.68307 12.3185C2.79595 12.4237 3.06512 12.5202 3.49059 12.6078C4.54124 12.8358 5.28799 13.0638 5.74819 13.3005C6.20839 13.5372 6.53835 13.8265 6.73806 14.1685C6.94645 14.5192 7.05065 14.9225 7.05065 15.3258C7.05065 15.8168 6.90304 16.299 6.63386 16.7111C6.34732 17.1407 5.9479 17.4739 5.47902 17.6755C4.98408 17.8947 4.3589 18.0087 3.61216 18.0087C2.29233 18.0087 1.38061 17.7545 0.868307 17.2372C0.356006 16.7111 0.0694645 16.0623 0 15.2732H0Z" fill="white"/>
<path d="M11.5484 14.6595L13.6497 15.2996C13.5368 15.8344 13.3024 16.3429 12.9811 16.7901C12.6859 17.1846 12.2952 17.4915 11.8523 17.6931C11.4008 17.8948 10.8277 18 10.1331 18C9.29083 18 8.59618 17.8772 8.06652 17.6318C7.52817 17.3863 7.06796 16.9479 6.67722 16.3254C6.28649 15.7029 6.09546 14.905 6.09546 13.9318C6.09546 12.6342 6.4341 11.6347 7.12006 10.942C7.80602 10.2494 8.76984 9.89868 10.0202 9.89868C11.0014 9.89868 11.7655 10.1003 12.3299 10.4949C12.8856 10.8982 13.3024 11.5119 13.5803 12.3361L11.4616 12.8095C11.4095 12.6254 11.3313 12.4413 11.2272 12.2835C11.0969 12.0994 10.9319 11.9591 10.7322 11.8539C10.5325 11.7487 10.3067 11.7048 10.081 11.7048C9.53395 11.7048 9.11717 11.924 8.83063 12.3712C8.61355 12.6956 8.50067 13.2129 8.50067 13.9143C8.50067 14.7823 8.63092 15.3785 8.89141 15.7029C9.1519 16.0273 9.51659 16.1851 9.99416 16.1851C10.4544 16.1851 10.8017 16.0536 11.0361 15.7993C11.2706 15.5275 11.4442 15.1505 11.5484 14.6595ZM16.4544 10.0302H18.8509V12.7745H21.4732V10.0302H23.8871V17.8685H21.4732V14.6946H18.8509V17.8685H16.4544V10.0302Z" fill="white"/>
<path d="M23.5571 13.9493C23.5571 12.6692 23.9131 11.6697 24.6165 10.9595C25.3198 10.2494 26.3097 9.88989 27.5687 9.88989C28.8625 9.88989 29.8524 10.2406 30.5557 10.942C31.259 11.6434 31.6063 12.6254 31.6063 13.8879C31.6063 14.8085 31.45 15.5538 31.1461 16.1412C30.8509 16.7199 30.3907 17.1934 29.8263 17.509C29.2445 17.8334 28.5238 18 27.6642 18C26.7872 18 26.0665 17.8597 25.4935 17.5791C24.903 17.281 24.4168 16.8163 24.0955 16.2464C23.7395 15.6327 23.5571 14.8699 23.5571 13.9493ZM25.9537 13.9581C25.9537 14.7472 26.1013 15.3171 26.3878 15.6678C26.6744 16.0097 27.0738 16.1851 27.5774 16.1851C28.0897 16.1851 28.4891 16.0185 28.7757 15.6765C29.0622 15.3346 29.2011 14.7296 29.2011 13.8529C29.2011 13.1164 29.0535 12.5728 28.7583 12.2396C28.4631 11.8977 28.0636 11.7311 27.56 11.7311C27.1172 11.7136 26.6917 11.9065 26.3965 12.2484C26.1013 12.5903 25.9537 13.1602 25.9537 13.9581ZM34.0636 13.9493C34.0636 12.6692 34.4196 11.6697 35.123 10.9595C35.8263 10.2494 36.8162 9.88989 38.0752 9.88989C39.369 9.88989 40.3675 10.2406 41.0622 10.942C41.7568 11.6434 42.1128 12.6254 42.1128 13.8879C42.1128 14.8085 41.9566 15.5538 41.6526 16.1412C41.3574 16.7199 40.8972 17.1934 40.3328 17.509C39.7511 17.8334 39.0304 18 38.1707 18C37.2937 18 36.573 17.8597 36 17.5791C35.4095 17.281 34.9233 16.8163 34.602 16.2464C34.246 15.6327 34.0636 14.8699 34.0636 13.9493ZM36.4602 13.9581C36.4602 14.7472 36.6078 15.3171 36.8943 15.6678C37.1809 16.0097 37.5803 16.1851 38.0839 16.1851C38.5962 16.1851 38.9956 16.0185 39.2822 15.6765C39.5687 15.3346 39.7076 14.7296 39.7076 13.8529C39.7076 13.1164 39.56 12.5728 39.2648 12.2396C38.9696 11.8977 38.5702 11.7311 38.0665 11.7311C37.6237 11.7136 37.1895 11.9065 36.903 12.2484C36.6078 12.5903 36.4602 13.1602 36.4602 13.9581Z" fill="white"/>
<path d="M41.861 10.0303H44.2575V15.9397H47.9999V17.8686H41.8523V10.0303H41.861Z" fill="white"/>
<path d="M40.4835 2.92924C41.7619 4.64221 41.1889 7.45106 38.9206 9.17711C36.6522 10.9032 33.8202 10.6852 32.5418 8.97225C31.2634 7.25928 31.8364 4.45043 34.1048 2.72438C36.3732 0.998335 39.2051 1.21628 40.4835 2.92924Z" stroke="white"/>
<path d="M34.0724 5.3746L34.9407 4.76087L36.0088 6.29521C36.1911 6.5407 36.33 6.80373 36.4342 7.09307C36.495 7.31226 36.4776 7.54898 36.3908 7.75941C36.2779 8.02244 36.0956 8.24163 35.8525 8.39945C35.5659 8.6011 35.3228 8.71508 35.1144 8.75015C34.9147 8.78522 34.7063 8.75015 34.5153 8.66248C34.3069 8.55726 34.1245 8.40821 33.9856 8.21532L34.7323 7.51391C34.7931 7.61036 34.8713 7.69803 34.9581 7.76817C35.0189 7.81201 35.0883 7.83832 35.1665 7.83832C35.2273 7.83832 35.2881 7.81201 35.3315 7.77694C35.4183 7.72434 35.4791 7.61912 35.4704 7.51391C35.4444 7.36486 35.3836 7.21581 35.2881 7.10183L34.0724 5.3746ZM36.6773 6.34781L37.4675 5.71654C37.5543 5.82175 37.6672 5.90066 37.7888 5.9445C37.9624 5.99711 38.1448 5.96204 38.2924 5.84806C38.3966 5.77792 38.4834 5.68147 38.5182 5.55873C38.5703 5.40091 38.4834 5.22555 38.3271 5.17295C38.3011 5.16418 38.275 5.15541 38.249 5.15541C38.1448 5.14665 37.9624 5.19048 37.6933 5.30446C37.2504 5.48858 36.9031 5.55872 36.6426 5.53242C36.3908 5.50612 36.1564 5.3746 36.0174 5.15541C35.9132 5.00636 35.8611 4.83101 35.8525 4.65566C35.8525 4.454 35.9046 4.25234 36.0174 4.08576C36.1824 3.84903 36.3821 3.64738 36.6252 3.48956C36.9899 3.2353 37.3112 3.11255 37.5891 3.11255C37.8669 3.11255 38.1274 3.24406 38.3705 3.51586L37.5891 4.13836C37.4328 3.93671 37.1375 3.89287 36.9378 4.05069L36.9118 4.07699C36.825 4.1296 36.7642 4.20851 36.7294 4.30495C36.7034 4.37509 36.7208 4.454 36.7642 4.51537C36.7989 4.55921 36.851 4.59428 36.9118 4.59428C36.9813 4.60305 37.1028 4.56798 37.2765 4.48907C37.7106 4.30495 38.0406 4.19974 38.2663 4.16467C38.4574 4.1296 38.6571 4.14713 38.8394 4.22604C39.0044 4.29618 39.1433 4.41893 39.2389 4.56798C39.3604 4.74333 39.4299 4.95376 39.4386 5.17295C39.4472 5.40091 39.3865 5.6201 39.2649 5.81299C39.1086 6.04971 38.9089 6.25137 38.6745 6.40919C38.1969 6.74236 37.8061 6.88264 37.4936 6.83004C37.1549 6.77743 36.8771 6.60208 36.6773 6.34781Z" fill="white"/>
</g>
<defs>
<clipPath id="clip0_8_204">
<rect width="48" height="18" fill="white"/>
</clipPath>
</defs>
</svg>
