<svg width="350" height="350" viewBox="0 0 350 350" fill="none" xmlns="http://www.w3.org/2000/svg">
<circle cx="175" cy="175" r="174.5" stroke="#1ED760"/>
<g clip-path="url(#clip0_32_19)">
<path d="M207.794 105.336C207.794 105.336 213.021 102.067 219.597 101.205C226.174 100.345 229.211 101.469 229.941 100.951C233.288 98.5722 236.723 92.1245 236.018 91.4195C235.315 90.7145 234.432 92.8194 230.625 93.6211C227.741 94.2294 224.041 93.2585 217.031 96.3927C209.758 99.6458 207.794 105.336 207.794 105.336Z" fill="#1ED760"/>
<path d="M197.102 104.625C197.102 104.625 192.352 100.695 185.949 98.971C179.543 97.2488 176.383 97.9618 175.728 97.3515C172.725 94.5537 170.173 87.7072 170.965 87.1009C171.756 86.4966 172.35 88.6982 176.018 89.9954C178.798 90.9803 182.595 90.507 189.127 94.5416C195.907 98.7252 197.102 104.625 197.102 104.625Z" fill="#1ED760"/>
<path d="M215.466 122.282C211.012 122.282 207.403 118.674 207.403 114.219C207.403 109.765 211.012 106.154 215.466 106.154C219.92 106.154 223.531 109.765 223.531 114.219C223.531 118.674 219.92 122.282 215.466 122.282ZM205.481 125.781C204.702 127.445 201.398 131.735 200.671 131.735C199.95 131.638 197.245 126.949 196.691 125.197C196.137 123.444 199.596 121.73 201.32 121.958C203.06 121.958 206.263 124.117 205.481 125.781ZM196.433 113.49C195.845 117.905 191.788 121.005 187.375 120.419C182.96 119.829 179.858 115.774 180.448 111.359C181.036 106.943 185.091 103.841 189.506 104.432C193.921 105.02 197.021 109.076 196.433 113.49ZM228.845 102.959C228.543 102.947 228.206 102.927 227.793 102.895C226.953 102.828 225.908 102.748 224.564 102.748C223.036 102.748 221.491 102.852 219.841 103.068C213.776 103.864 208.839 106.899 208.789 106.929L204.295 109.723L206.019 104.724C206.108 104.462 208.297 98.3626 216.012 94.7993C208.47 92.9542 198.099 92.2231 189.534 92.5937C189.728 92.7085 189.917 92.8193 190.114 92.9422C197.503 97.5025 198.886 103.98 198.943 104.252L199.994 109.461L195.903 106.073C195.817 106.003 191.339 102.367 185.459 100.786C181.759 99.7907 179.257 99.6537 177.6 99.5631C176.617 99.5087 175.863 99.4624 175.243 99.2186C173.97 101.1 172.824 103.261 172.133 105.618C169.784 113.635 168.022 124.556 175.773 129.135C183.524 133.715 193.74 131.483 195.502 131.483C197.263 131.483 199.025 135.83 200.433 135.83C201.843 135.83 203.723 131.719 206.543 131.719C209.361 131.719 221.952 136.308 228.861 131.348C229.576 129.256 230.253 126.778 230.766 123.545C232.203 114.531 231.963 107.944 228.845 102.959Z" fill="#1ED760"/>
<path d="M193.055 243.197C191.567 243.674 192.527 247.183 193.472 248.777C193.472 248.777 195.815 248.648 198.582 249.749C200.625 250.563 201.153 252.009 201.743 252.009C201.986 252.009 202.321 247.604 199.964 245.57C197.388 243.344 193.055 243.197 193.055 243.197Z" fill="#1ED760"/>
<path d="M185.862 251.427C184.337 251.081 182.807 253.383 182.809 255.234C182.809 255.234 185.28 256.121 187.437 258.177C188.996 259.664 188.974 261.331 189.482 261.632C189.691 261.756 191.051 259.259 190.058 256.31C188.968 253.085 185.862 251.427 185.862 251.427Z" fill="#1ED760"/>
<path d="M224.627 147.338C224.627 141.196 226.182 138.209 227.836 134.084C225.707 135.043 223.138 135.532 220.161 135.532H220.159C216.221 135.532 212.35 134.72 209.522 134.126C208.283 133.866 207.004 133.598 206.543 133.598C205.703 133.598 204.663 134.7 203.828 135.587C202.8 136.678 201.829 137.708 200.433 137.708C198.842 137.708 197.779 136.324 196.749 134.982C196.353 134.465 195.706 133.625 195.345 133.371C195.092 133.391 194.648 133.441 194.248 133.488C192.799 133.655 190.61 133.907 188.03 133.907C182.803 133.907 178.359 132.845 174.816 130.752C168.026 126.74 166.515 118.109 170.328 105.09C171.094 102.48 172.352 100.105 173.775 98.0284C173.41 97.6195 173.053 97.1643 172.705 96.6748C165.788 101.38 162.718 110.35 161.681 120.562C160.43 132.875 163.383 140.586 158.744 145.225C154.105 149.864 129.033 164.836 113.532 194.313C98.0298 223.79 103.863 251.307 103.863 251.307C103.863 251.307 104.612 248.511 106.492 244.164C108.369 239.819 113.705 231.935 113.884 232.832C114.12 234.006 110.009 240.347 107.66 246.396C105.311 252.443 104.784 258.314 104.784 258.314C104.784 258.314 107.449 257.646 108.071 257.023C109.08 256.014 109.437 253.387 112.935 245.23C116.39 237.176 123.103 229.309 123.456 229.661C123.808 230.012 118.054 237.646 115.175 244.811C112.299 251.973 110.655 258.965 110.655 258.965C110.655 258.965 113.89 258.594 115.236 257.251C116.338 256.149 118.662 248.799 121.929 242.168C125.275 235.376 132.262 227.077 132.262 227.899C132.262 228.721 127.448 234.711 124.336 240.816C121.224 246.924 117.476 256.711 117.184 258.765C117.006 259.998 121.752 258.314 123.045 257.023C124.336 255.732 126.449 250.33 134.905 243.87C143.361 237.412 157.664 228.364 180.822 206.995C205.133 184.566 198.907 164.014 197.499 160.725C197.499 160.725 197.851 158.847 198.556 159.552C199.259 160.255 201.737 165.932 200.905 174.935C199.906 185.74 196.089 194.665 181.175 209.579C168.61 222.144 140.777 242.46 141.306 242.46C141.834 242.46 164.851 241.912 166.026 242.343C167.2 242.774 166.535 243.634 165.635 244.535C164.734 245.437 162.396 243.115 158.901 244.184C158.347 244.353 157.956 244.732 157.693 245.23C157.88 245.213 158.019 245.205 158.077 245.203L158.406 245.193L158.718 245.294C159.485 245.54 160.071 246.11 160.37 246.897C161.002 248.563 160.14 251.033 159.447 252.199L159.157 252.688C159.969 253.15 161.024 253.283 162.327 253.176C167.009 252.795 170.572 247.659 170.723 247.393C171.065 246.795 171.13 244.706 171.716 244.706C172.689 244.706 172.328 247.198 172.328 247.707C172.328 248.271 177.493 254.366 180.931 256.169L180.929 255.238C180.927 253.655 181.656 251.901 182.788 250.767C183.606 249.947 184.563 249.514 185.552 249.514C185.796 249.514 186.039 249.542 186.277 249.594L186.523 249.651L186.746 249.77C186.797 249.796 187.248 250.044 187.866 250.501C187.24 249.238 186.106 248.197 185.302 247.743C183.659 246.819 176.419 244.164 176.711 243.87C177.005 243.576 181.372 243.92 186.064 246.16C190.306 248.187 190.189 251.542 190.189 251.542C190.189 251.542 192.451 251.855 193.535 251.238C193.746 251.119 193.931 250.914 194.099 250.662C193.939 250.656 193.8 250.652 193.714 250.652L193.567 250.654L192.441 250.704L191.855 249.735C190.989 248.273 189.899 245.199 190.666 243.175C190.997 242.305 191.641 241.678 192.481 241.408L192.791 241.308L192.926 241.314C192.834 241.251 192.745 241.179 192.644 241.131C189.248 239.477 177.652 241.404 177.652 241.404C177.652 241.404 181.36 236.405 186.342 231.422C191.998 225.766 216.05 209.226 224.74 189.499C233.429 169.769 224.627 157.437 224.627 147.338Z" fill="#1ED760"/>
<path d="M158.142 247.083C159.252 247.437 158.535 250.054 157.832 251.24C157.832 251.24 156.085 251.143 154.023 251.965C152.502 252.571 152.107 253.649 151.668 253.649C151.487 253.649 151.239 250.366 152.993 248.851C154.913 247.191 158.142 247.083 158.142 247.083Z" fill="#1ED760"/>
<path d="M219.867 114.167C219.867 116.598 217.897 118.566 215.466 118.566C213.037 118.566 211.065 116.598 211.065 114.167C211.065 111.733 213.037 109.763 215.466 109.763C217.897 109.763 219.867 111.733 219.867 114.167Z" fill="#1ED760"/>
<path d="M192.842 112.424C192.842 114.856 190.872 116.826 188.44 116.826C186.009 116.826 184.039 114.856 184.039 112.424C184.039 109.993 186.009 108.023 188.44 108.023C190.872 108.023 192.842 109.993 192.842 112.424Z" fill="#1ED760"/>
</g>
<defs>
<clipPath id="clip0_32_19">
<rect width="175" height="175" fill="white" transform="translate(82 87)"/>
</clipPath>
</defs>
</svg>
